<svg xmlns="http://www.w3.org/2000/svg" viewBox="0 0 800 500">
  <!-- Background -->
  <rect width="800" height="500" fill="#f8f9fa" rx="5" ry="5" />
  
  <!-- Container boxes -->
  <!-- Postgres Container -->
  <rect x="100" y="220" width="180" height="100" rx="5" ry="5" fill="#336791" stroke="#213547" stroke-width="2" />
  <text x="190" y="265" font-family="Arial" font-size="18" text-anchor="middle" fill="white">PostgreSQL</text>
  <text x="190" y="290" font-family="Arial" font-size="12" text-anchor="middle" fill="white">Stores metadata, runs,</text>
  <text x="190" y="305" font-family="Arial" font-size="12" text-anchor="middle" fill="white">and event logs</text>
  
  <!-- Dagster Core Container -->
  <rect x="320" y="110" width="180" height="100" rx="5" ry="5" fill="#4e6ac8" stroke="#213547" stroke-width="2" />
  <text x="410" y="150" font-family="Arial" font-size="18" text-anchor="middle" fill="white">docker_dagster_core</text>
  <text x="410" y="175" font-family="Arial" font-size="12" text-anchor="middle" fill="white">gRPC server that exposes</text>
  <text x="410" y="190" font-family="Arial" font-size="12" text-anchor="middle" fill="white">pipelines to other services</text>
  
  <!-- Webserver Container -->
  <rect x="540" y="220" width="180" height="100" rx="5" ry="5" fill="#5cb85c" stroke="#213547" stroke-width="2" />
  <text x="630" y="265" font-family="Arial" font-size="18" text-anchor="middle" fill="white">dagster-webserver</text>
  <text x="630" y="290" font-family="Arial" font-size="12" text-anchor="middle" fill="white">Web UI for monitoring</text>
  <text x="630" y="305" font-family="Arial" font-size="12" text-anchor="middle" fill="white">and managing pipelines</text>
  
  <!-- Daemon Container -->
  <rect x="320" y="330" width="180" height="100" rx="5" ry="5" fill="#f0ad4e" stroke="#213547" stroke-width="2" />
  <text x="410" y="375" font-family="Arial" font-size="18" text-anchor="middle" fill="white">dagster-daemon</text>
  <text x="410" y="400" font-family="Arial" font-size="12" text-anchor="middle" fill="white">Runs schedules, sensors,</text>
  <text x="410" y="415" font-family="Arial" font-size="12" text-anchor="middle" fill="white">and background tasks</text>
  
  <!-- Connection arrows -->
  <!-- Core to Postgres -->
  <path d="M 330 210 L 330 240 L 280 240" fill="none" stroke="#213547" stroke-width="2" />
  <polygon points="280,240 290,235 290,245" fill="#213547" />
  
  <!-- Webserver to Core -->
  <path d="M 540 240 L 490 240 L 490 160" fill="none" stroke="#213547" stroke-width="2" />
  <polygon points="490,160 485,170 495,170" fill="#213547" />
  
  <!-- Add a gRPC label to this connection -->
  <rect x="490" y="210" width="60" height="20" rx="10" ry="10" fill="#17a2b8" stroke="none" />
  <text x="520" y="225" font-family="Arial" font-size="12" text-anchor="middle" fill="white">gRPC</text>
  
  <!-- Webserver to Postgres -->
  <path d="M 540 270 L 280 270" fill="none" stroke="#213547" stroke-width="2" />
  <polygon points="280,270 290,265 290,275" fill="#213547" />
  
  <!-- Daemon to Core -->
  <path d="M 410 330 L 410 210" fill="none" stroke="#213547" stroke-width="2" />
  <polygon points="410,210 405,220 415,220" fill="#213547" />
  
  <!-- Daemon to Webserver -->
  <path d="M 500 350 L 560 350 L 560 320" fill="none" stroke="#213547" stroke-width="2" />
  <polygon points="560,320 555,330 565,330" fill="#213547" />
  
  <!-- Add a gRPC label to this connection -->
  <rect x="420" y="270" width="60" height="20" rx="10" ry="10" fill="#17a2b8" stroke="none" />
  <text x="450" y="285" font-family="Arial" font-size="12" text-anchor="middle" fill="white">gRPC</text>
  
  <!-- Daemon to Postgres -->
  <path d="M 320 380 L 280 380 L 280 320" fill="none" stroke="#213547" stroke-width="2" />
  <polygon points="280,320 275,330 285,330" fill="#213547" />
  
  <!-- External user - repositioned to connect to webserver -->
  <rect x="630" y="110" width="90" height="50" rx="25" ry="25" fill="#6c757d" stroke="#213547" stroke-width="2" />
  <text x="675" y="140" font-family="Arial" font-size="16" text-anchor="middle" fill="white">User</text>
  
  <!-- User to Webserver -->
  <path d="M 675 160 L 675 220" fill="none" stroke="#213547" stroke-width="2" stroke-dasharray="5,5" />
  <polygon points="675,220 670,210 680,210" fill="#213547" />
  <rect x="685" y="180" width="50" height="20" rx="10" ry="10" fill="#dc3545" stroke="none" />
  <text x="710" y="195" font-family="Arial" font-size="12" text-anchor="middle" fill="white">HTTP</text>
  
  <!-- Docker network boundary -->
  <rect x="80" y="80" width="660" height="370" rx="10" ry="10" fill="none" stroke="#495057" stroke-width="2" stroke-dasharray="5,5" />
  <text x="400" y="465" font-family="Arial" font-size="16" text-anchor="middle" fill="#495057">Docker Network: dagster-network</text>
  
  <!-- Title -->
  <text x="400" y="40" font-family="Arial" font-size="24" font-weight="bold" text-anchor="middle" fill="#212529">Dagster Architecture</text>
</svg>